# xmcd
#
# Track frame offsets:
#	182
#	16062
#	29557
#	43007
#	53450
#	66512
#	82875
#	94057
#	107235
#	124532
#	137222
#	153332
#	165950
#	177115
#
# Disc length: 2534 seconds
#
# Revision: 3
# Processed by: cddbd v1.5.2PL0 Copyright (c) Steve Scherf et al.
# Submitted via: audiograbber 1.83.01
#
DISCID=a909e40e
DTITLE=Various Artist - Country Hits Vol.2
DYEAR=1900
DGENRE=Country
TTITLE0=Gunter Gabriel - Damen Wollen Kerle
TTITLE1=Volker Lechtenbrink - Der Winzige Cowboy
TTITLE2=Truck Stop - Take It Easy, Altes Haus
TTITLE3=Freddy Quinn - Die Schönste Frau Von Texas (Yellow Rose Of Texas)
TTITLE4=Johnny Hill - Mexican Joe (Südlich der Grenze)
TTITLE5=Gunter Gabriel - Ich Bin CB-Funker
TTITLE6=Freddy Quinn - Nur Ein Mann In Den Besten Jahren
TTITLE7=Tom Astor - Truck Drivin´ Girl
TTITLE8=Gunter Gabriel - Stur In Der Spur
TTITLE9=Johnny Hill - Kann Liebe Alles Verzeihen (Some Broken Hearts Never Mend
TTITLE9=)
TTITLE10=Truck Stop - Heirate Doch Johnny Hill
TTITLE11=Gunter Gabriel - 5000 Meilen Von Zuhaus
TTITLE12=Tom Astor - Panamerican Highway
TTITLE13=Johnny Hill - Und überhaupt Mein Bester Freund (You´re My Best Friend)
EXTD=
EXTT0=
EXTT1=
EXTT2=
EXTT3=
EXTT4=
EXTT5=
EXTT6=
EXTT7=
EXTT8=
EXTT9=
EXTT10=
EXTT11=
EXTT12=
EXTT13=
PLAYORDER=
